<mxfile host="Electron" modified="2024-02-04T21:41:44.745Z" agent="Mozilla/5.0 (X11; Linux x86_64) AppleWebKit/537.36 (KHTML, like Gecko) draw.io/23.0.2 Chrome/120.0.6099.109 Electron/28.1.0 Safari/537.36" etag="59A8a8RRcjhEb2WeX6_f" version="23.0.2" type="device" pages="2">
  <diagram name="fully-connected" id="OyYYwfIQW-hLlGzN4EIT">
    <mxGraphModel dx="1434" dy="839" grid="1" gridSize="10" guides="1" tooltips="1" connect="1" arrows="1" fold="1" page="1" pageScale="1" pageWidth="583" pageHeight="827" math="0" shadow="0">
      <root>
        <mxCell id="0" />
        <mxCell id="1" parent="0" />
        <mxCell id="1TGieU-8a1iTlZvp9suH-83" value="" style="group;fillColor=#FFCCFF;strokeColor=#82b366;" parent="1" vertex="1" connectable="0">
          <mxGeometry x="410" width="50" height="608" as="geometry" />
        </mxCell>
        <mxCell id="1TGieU-8a1iTlZvp9suH-34" value="" style="ellipse;whiteSpace=wrap;html=1;aspect=fixed;" parent="1TGieU-8a1iTlZvp9suH-83" vertex="1">
          <mxGeometry x="5" y="50" width="40" height="40" as="geometry" />
        </mxCell>
        <mxCell id="1TGieU-8a1iTlZvp9suH-35" value="" style="ellipse;whiteSpace=wrap;html=1;aspect=fixed;" parent="1TGieU-8a1iTlZvp9suH-83" vertex="1">
          <mxGeometry x="5" y="108" width="40" height="40" as="geometry" />
        </mxCell>
        <mxCell id="1TGieU-8a1iTlZvp9suH-36" value="" style="ellipse;whiteSpace=wrap;html=1;aspect=fixed;" parent="1TGieU-8a1iTlZvp9suH-83" vertex="1">
          <mxGeometry x="5" y="166" width="40" height="40" as="geometry" />
        </mxCell>
        <mxCell id="1TGieU-8a1iTlZvp9suH-37" value="" style="ellipse;whiteSpace=wrap;html=1;aspect=fixed;" parent="1TGieU-8a1iTlZvp9suH-83" vertex="1">
          <mxGeometry x="5" y="224" width="40" height="40" as="geometry" />
        </mxCell>
        <mxCell id="1TGieU-8a1iTlZvp9suH-38" value="&lt;font face=&quot;Architects Daughter&quot; data-font-src=&quot;https://fonts.googleapis.com/css?family=Architects+Daughter&quot; style=&quot;font-size: 22px;&quot;&gt;Hip&lt;/font&gt;" style="text;html=1;align=center;verticalAlign=middle;resizable=0;points=[];autosize=1;strokeColor=none;fillColor=none;fontSize=21;" parent="1TGieU-8a1iTlZvp9suH-83" vertex="1">
          <mxGeometry width="50" height="40" as="geometry" />
        </mxCell>
        <mxCell id="1TGieU-8a1iTlZvp9suH-73" value="" style="ellipse;whiteSpace=wrap;html=1;aspect=fixed;" parent="1TGieU-8a1iTlZvp9suH-83" vertex="1">
          <mxGeometry x="5" y="394" width="40" height="40" as="geometry" />
        </mxCell>
        <mxCell id="1TGieU-8a1iTlZvp9suH-74" value="" style="ellipse;whiteSpace=wrap;html=1;aspect=fixed;" parent="1TGieU-8a1iTlZvp9suH-83" vertex="1">
          <mxGeometry x="5" y="452" width="40" height="40" as="geometry" />
        </mxCell>
        <mxCell id="1TGieU-8a1iTlZvp9suH-75" value="" style="ellipse;whiteSpace=wrap;html=1;aspect=fixed;" parent="1TGieU-8a1iTlZvp9suH-83" vertex="1">
          <mxGeometry x="5" y="510" width="40" height="40" as="geometry" />
        </mxCell>
        <mxCell id="1TGieU-8a1iTlZvp9suH-76" value="" style="ellipse;whiteSpace=wrap;html=1;aspect=fixed;" parent="1TGieU-8a1iTlZvp9suH-83" vertex="1">
          <mxGeometry x="5" y="568" width="40" height="40" as="geometry" />
        </mxCell>
        <mxCell id="1TGieU-8a1iTlZvp9suH-77" value="" style="group" parent="1TGieU-8a1iTlZvp9suH-83" vertex="1" connectable="0">
          <mxGeometry x="10" y="262" width="30" height="132" as="geometry" />
        </mxCell>
        <mxCell id="1TGieU-8a1iTlZvp9suH-78" value="&lt;font style=&quot;font-size: 30px;&quot;&gt;&lt;b&gt;.&lt;/b&gt;&lt;/font&gt;" style="text;html=1;align=center;verticalAlign=middle;resizable=0;points=[];autosize=1;strokeColor=none;fillColor=none;" parent="1TGieU-8a1iTlZvp9suH-77" vertex="1">
          <mxGeometry width="30" height="50" as="geometry" />
        </mxCell>
        <mxCell id="1TGieU-8a1iTlZvp9suH-79" value="&lt;font style=&quot;font-size: 30px;&quot;&gt;&lt;b&gt;.&lt;/b&gt;&lt;/font&gt;" style="text;html=1;align=center;verticalAlign=middle;resizable=0;points=[];autosize=1;strokeColor=none;fillColor=none;" parent="1TGieU-8a1iTlZvp9suH-77" vertex="1">
          <mxGeometry y="41" width="30" height="50" as="geometry" />
        </mxCell>
        <mxCell id="1TGieU-8a1iTlZvp9suH-80" value="&lt;font style=&quot;font-size: 30px;&quot;&gt;&lt;b&gt;.&lt;/b&gt;&lt;/font&gt;" style="text;html=1;align=center;verticalAlign=middle;resizable=0;points=[];autosize=1;strokeColor=none;fillColor=none;" parent="1TGieU-8a1iTlZvp9suH-77" vertex="1">
          <mxGeometry y="82" width="30" height="50" as="geometry" />
        </mxCell>
        <mxCell id="1TGieU-8a1iTlZvp9suH-82" value="" style="group;fillColor=#dae8fc;strokeColor=#6c8ebf;" parent="1" vertex="1" connectable="0">
          <mxGeometry x="298" y="4" width="70" height="604" as="geometry" />
        </mxCell>
        <mxCell id="1TGieU-8a1iTlZvp9suH-29" value="" style="ellipse;whiteSpace=wrap;html=1;aspect=fixed;" parent="1TGieU-8a1iTlZvp9suH-82" vertex="1">
          <mxGeometry x="15" y="50" width="40" height="40" as="geometry" />
        </mxCell>
        <mxCell id="1TGieU-8a1iTlZvp9suH-30" value="" style="ellipse;whiteSpace=wrap;html=1;aspect=fixed;" parent="1TGieU-8a1iTlZvp9suH-82" vertex="1">
          <mxGeometry x="15" y="108" width="40" height="40" as="geometry" />
        </mxCell>
        <mxCell id="1TGieU-8a1iTlZvp9suH-31" value="" style="ellipse;whiteSpace=wrap;html=1;aspect=fixed;" parent="1TGieU-8a1iTlZvp9suH-82" vertex="1">
          <mxGeometry x="15" y="166" width="40" height="40" as="geometry" />
        </mxCell>
        <mxCell id="1TGieU-8a1iTlZvp9suH-32" value="" style="ellipse;whiteSpace=wrap;html=1;aspect=fixed;" parent="1TGieU-8a1iTlZvp9suH-82" vertex="1">
          <mxGeometry x="15" y="224" width="40" height="40" as="geometry" />
        </mxCell>
        <mxCell id="1TGieU-8a1iTlZvp9suH-33" value="&lt;font face=&quot;Architects Daughter&quot; data-font-src=&quot;https://fonts.googleapis.com/css?family=Architects+Daughter&quot; style=&quot;font-size: 22px;&quot;&gt;LEC&lt;/font&gt;" style="text;html=1;align=center;verticalAlign=middle;resizable=0;points=[];autosize=1;strokeColor=none;fillColor=none;fontSize=21;" parent="1TGieU-8a1iTlZvp9suH-82" vertex="1">
          <mxGeometry width="70" height="40" as="geometry" />
        </mxCell>
        <mxCell id="1TGieU-8a1iTlZvp9suH-65" value="" style="ellipse;whiteSpace=wrap;html=1;aspect=fixed;" parent="1TGieU-8a1iTlZvp9suH-82" vertex="1">
          <mxGeometry x="15" y="390" width="40" height="40" as="geometry" />
        </mxCell>
        <mxCell id="1TGieU-8a1iTlZvp9suH-66" value="" style="ellipse;whiteSpace=wrap;html=1;aspect=fixed;" parent="1TGieU-8a1iTlZvp9suH-82" vertex="1">
          <mxGeometry x="15" y="448" width="40" height="40" as="geometry" />
        </mxCell>
        <mxCell id="1TGieU-8a1iTlZvp9suH-67" value="" style="ellipse;whiteSpace=wrap;html=1;aspect=fixed;" parent="1TGieU-8a1iTlZvp9suH-82" vertex="1">
          <mxGeometry x="15" y="506" width="40" height="40" as="geometry" />
        </mxCell>
        <mxCell id="1TGieU-8a1iTlZvp9suH-68" value="" style="ellipse;whiteSpace=wrap;html=1;aspect=fixed;" parent="1TGieU-8a1iTlZvp9suH-82" vertex="1">
          <mxGeometry x="15" y="564" width="40" height="40" as="geometry" />
        </mxCell>
        <mxCell id="1TGieU-8a1iTlZvp9suH-69" value="" style="group" parent="1TGieU-8a1iTlZvp9suH-82" vertex="1" connectable="0">
          <mxGeometry x="20" y="258" width="30" height="132" as="geometry" />
        </mxCell>
        <mxCell id="1TGieU-8a1iTlZvp9suH-70" value="&lt;font style=&quot;font-size: 30px;&quot;&gt;&lt;b&gt;.&lt;/b&gt;&lt;/font&gt;" style="text;html=1;align=center;verticalAlign=middle;resizable=0;points=[];autosize=1;strokeColor=none;fillColor=none;" parent="1TGieU-8a1iTlZvp9suH-69" vertex="1">
          <mxGeometry width="30" height="50" as="geometry" />
        </mxCell>
        <mxCell id="1TGieU-8a1iTlZvp9suH-71" value="&lt;font style=&quot;font-size: 30px;&quot;&gt;&lt;b&gt;.&lt;/b&gt;&lt;/font&gt;" style="text;html=1;align=center;verticalAlign=middle;resizable=0;points=[];autosize=1;strokeColor=none;fillColor=none;" parent="1TGieU-8a1iTlZvp9suH-69" vertex="1">
          <mxGeometry y="41" width="30" height="50" as="geometry" />
        </mxCell>
        <mxCell id="1TGieU-8a1iTlZvp9suH-72" value="&lt;font style=&quot;font-size: 30px;&quot;&gt;&lt;b&gt;.&lt;/b&gt;&lt;/font&gt;" style="text;html=1;align=center;verticalAlign=middle;resizable=0;points=[];autosize=1;strokeColor=none;fillColor=none;" parent="1TGieU-8a1iTlZvp9suH-69" vertex="1">
          <mxGeometry y="82" width="30" height="50" as="geometry" />
        </mxCell>
        <mxCell id="1TGieU-8a1iTlZvp9suH-2" value="&lt;font face=&quot;Architects Daughter&quot; data-font-src=&quot;https://fonts.googleapis.com/css?family=Architects+Daughter&quot; style=&quot;font-size: 22px;&quot;&gt;Location&lt;/font&gt;" style="text;html=1;align=center;verticalAlign=middle;resizable=0;points=[];autosize=1;strokeColor=none;fillColor=none;fontSize=21;" parent="1" vertex="1">
          <mxGeometry y="284" width="110" height="40" as="geometry" />
        </mxCell>
        <mxCell id="1TGieU-8a1iTlZvp9suH-11" value="" style="ellipse;whiteSpace=wrap;html=1;aspect=fixed;" parent="1" vertex="1">
          <mxGeometry x="112" y="284" width="40" height="40" as="geometry" />
        </mxCell>
        <mxCell id="1TGieU-8a1iTlZvp9suH-23" value="&lt;font face=&quot;Architects Daughter&quot; data-font-src=&quot;https://fonts.googleapis.com/css?family=Architects+Daughter&quot; style=&quot;font-size: 22px;&quot;&gt;Odor&lt;/font&gt;" style="text;html=1;align=center;verticalAlign=middle;resizable=0;points=[];autosize=1;strokeColor=none;fillColor=none;fontSize=21;" parent="1" vertex="1">
          <mxGeometry x="20" y="354" width="70" height="40" as="geometry" />
        </mxCell>
        <mxCell id="1TGieU-8a1iTlZvp9suH-24" value="" style="ellipse;whiteSpace=wrap;html=1;aspect=fixed;" parent="1" vertex="1">
          <mxGeometry x="112" y="354" width="40" height="40" as="geometry" />
        </mxCell>
        <mxCell id="1TGieU-8a1iTlZvp9suH-81" value="" style="group;fillColor=#fff2cc;strokeColor=#d6b656;" parent="1" vertex="1" connectable="0">
          <mxGeometry x="200" y="4" width="60" height="604" as="geometry" />
        </mxCell>
        <mxCell id="1TGieU-8a1iTlZvp9suH-1" value="" style="ellipse;whiteSpace=wrap;html=1;aspect=fixed;" parent="1TGieU-8a1iTlZvp9suH-81" vertex="1">
          <mxGeometry x="10" y="50" width="40" height="40" as="geometry" />
        </mxCell>
        <mxCell id="1TGieU-8a1iTlZvp9suH-25" value="" style="ellipse;whiteSpace=wrap;html=1;aspect=fixed;" parent="1TGieU-8a1iTlZvp9suH-81" vertex="1">
          <mxGeometry x="10" y="108" width="40" height="40" as="geometry" />
        </mxCell>
        <mxCell id="1TGieU-8a1iTlZvp9suH-26" value="" style="ellipse;whiteSpace=wrap;html=1;aspect=fixed;" parent="1TGieU-8a1iTlZvp9suH-81" vertex="1">
          <mxGeometry x="10" y="166" width="40" height="40" as="geometry" />
        </mxCell>
        <mxCell id="1TGieU-8a1iTlZvp9suH-27" value="" style="ellipse;whiteSpace=wrap;html=1;aspect=fixed;" parent="1TGieU-8a1iTlZvp9suH-81" vertex="1">
          <mxGeometry x="10" y="224" width="40" height="40" as="geometry" />
        </mxCell>
        <mxCell id="1TGieU-8a1iTlZvp9suH-28" value="&lt;font face=&quot;Architects Daughter&quot; data-font-src=&quot;https://fonts.googleapis.com/css?family=Architects+Daughter&quot; style=&quot;font-size: 22px;&quot;&gt;PCx&lt;/font&gt;" style="text;html=1;align=center;verticalAlign=middle;resizable=0;points=[];autosize=1;strokeColor=none;fillColor=none;fontSize=21;" parent="1TGieU-8a1iTlZvp9suH-81" vertex="1">
          <mxGeometry width="60" height="40" as="geometry" />
        </mxCell>
        <mxCell id="1TGieU-8a1iTlZvp9suH-56" value="" style="ellipse;whiteSpace=wrap;html=1;aspect=fixed;" parent="1TGieU-8a1iTlZvp9suH-81" vertex="1">
          <mxGeometry x="10" y="390" width="40" height="40" as="geometry" />
        </mxCell>
        <mxCell id="1TGieU-8a1iTlZvp9suH-57" value="" style="ellipse;whiteSpace=wrap;html=1;aspect=fixed;" parent="1TGieU-8a1iTlZvp9suH-81" vertex="1">
          <mxGeometry x="10" y="448" width="40" height="40" as="geometry" />
        </mxCell>
        <mxCell id="1TGieU-8a1iTlZvp9suH-58" value="" style="ellipse;whiteSpace=wrap;html=1;aspect=fixed;" parent="1TGieU-8a1iTlZvp9suH-81" vertex="1">
          <mxGeometry x="10" y="506" width="40" height="40" as="geometry" />
        </mxCell>
        <mxCell id="1TGieU-8a1iTlZvp9suH-59" value="" style="ellipse;whiteSpace=wrap;html=1;aspect=fixed;" parent="1TGieU-8a1iTlZvp9suH-81" vertex="1">
          <mxGeometry x="10" y="564" width="40" height="40" as="geometry" />
        </mxCell>
        <mxCell id="1TGieU-8a1iTlZvp9suH-63" value="" style="group" parent="1TGieU-8a1iTlZvp9suH-81" vertex="1" connectable="0">
          <mxGeometry x="15" y="258" width="30" height="132" as="geometry" />
        </mxCell>
        <mxCell id="1TGieU-8a1iTlZvp9suH-60" value="&lt;font style=&quot;font-size: 30px;&quot;&gt;&lt;b&gt;.&lt;/b&gt;&lt;/font&gt;" style="text;html=1;align=center;verticalAlign=middle;resizable=0;points=[];autosize=1;strokeColor=none;fillColor=none;" parent="1TGieU-8a1iTlZvp9suH-63" vertex="1">
          <mxGeometry width="30" height="50" as="geometry" />
        </mxCell>
        <mxCell id="1TGieU-8a1iTlZvp9suH-61" value="&lt;font style=&quot;font-size: 30px;&quot;&gt;&lt;b&gt;.&lt;/b&gt;&lt;/font&gt;" style="text;html=1;align=center;verticalAlign=middle;resizable=0;points=[];autosize=1;strokeColor=none;fillColor=none;" parent="1TGieU-8a1iTlZvp9suH-63" vertex="1">
          <mxGeometry y="41" width="30" height="50" as="geometry" />
        </mxCell>
        <mxCell id="1TGieU-8a1iTlZvp9suH-62" value="&lt;font style=&quot;font-size: 30px;&quot;&gt;&lt;b&gt;.&lt;/b&gt;&lt;/font&gt;" style="text;html=1;align=center;verticalAlign=middle;resizable=0;points=[];autosize=1;strokeColor=none;fillColor=none;" parent="1TGieU-8a1iTlZvp9suH-63" vertex="1">
          <mxGeometry y="82" width="30" height="50" as="geometry" />
        </mxCell>
        <mxCell id="1TGieU-8a1iTlZvp9suH-84" value="" style="group" parent="1" vertex="1" connectable="0">
          <mxGeometry x="520" y="224" width="40" height="220" as="geometry" />
        </mxCell>
        <mxCell id="1TGieU-8a1iTlZvp9suH-49" value="" style="group" parent="1TGieU-8a1iTlZvp9suH-84" vertex="1" connectable="0">
          <mxGeometry width="40" height="40" as="geometry" />
        </mxCell>
        <mxCell id="1TGieU-8a1iTlZvp9suH-39" value="" style="ellipse;whiteSpace=wrap;html=1;aspect=fixed;" parent="1TGieU-8a1iTlZvp9suH-49" vertex="1">
          <mxGeometry width="40" height="40" as="geometry" />
        </mxCell>
        <mxCell id="1TGieU-8a1iTlZvp9suH-47" value="" style="shape=flexArrow;endArrow=classic;html=1;rounded=0;fillColor=#dae8fc;strokeColor=#6c8ebf;width=6.8;endSize=3.8160000000000003;endWidth=6.382716049382716;" parent="1TGieU-8a1iTlZvp9suH-49" edge="1">
          <mxGeometry width="50" height="50" relative="1" as="geometry">
            <mxPoint x="19.83000000000004" y="35" as="sourcePoint" />
            <mxPoint x="19.83000000000004" y="5" as="targetPoint" />
          </mxGeometry>
        </mxCell>
        <mxCell id="1TGieU-8a1iTlZvp9suH-50" value="" style="group" parent="1TGieU-8a1iTlZvp9suH-84" vertex="1" connectable="0">
          <mxGeometry y="60" width="40" height="40" as="geometry" />
        </mxCell>
        <mxCell id="1TGieU-8a1iTlZvp9suH-43" value="" style="ellipse;whiteSpace=wrap;html=1;aspect=fixed;" parent="1TGieU-8a1iTlZvp9suH-50" vertex="1">
          <mxGeometry width="40" height="40" as="geometry" />
        </mxCell>
        <mxCell id="1TGieU-8a1iTlZvp9suH-48" value="" style="shape=flexArrow;endArrow=classic;html=1;rounded=0;fillColor=#dae8fc;strokeColor=#6c8ebf;width=6.8;endSize=3.8160000000000003;endWidth=6.382716049382716;" parent="1TGieU-8a1iTlZvp9suH-50" edge="1">
          <mxGeometry width="50" height="50" relative="1" as="geometry">
            <mxPoint x="19.833333333333485" y="5" as="sourcePoint" />
            <mxPoint x="19.833333333333485" y="35" as="targetPoint" />
          </mxGeometry>
        </mxCell>
        <mxCell id="1TGieU-8a1iTlZvp9suH-51" value="" style="group" parent="1TGieU-8a1iTlZvp9suH-84" vertex="1" connectable="0">
          <mxGeometry y="120" width="40" height="40" as="geometry" />
        </mxCell>
        <mxCell id="1TGieU-8a1iTlZvp9suH-44" value="" style="ellipse;whiteSpace=wrap;html=1;aspect=fixed;verticalAlign=middle;" parent="1TGieU-8a1iTlZvp9suH-51" vertex="1">
          <mxGeometry width="40" height="40" as="geometry" />
        </mxCell>
        <mxCell id="1TGieU-8a1iTlZvp9suH-46" value="" style="shape=flexArrow;endArrow=classic;html=1;rounded=0;fillColor=#dae8fc;strokeColor=#6c8ebf;width=6.8;endSize=3.8160000000000003;endWidth=6.382716049382716;" parent="1TGieU-8a1iTlZvp9suH-51" edge="1">
          <mxGeometry width="50" height="50" relative="1" as="geometry">
            <mxPoint x="5" y="20.139999999999986" as="sourcePoint" />
            <mxPoint x="35" y="19.850000000000023" as="targetPoint" />
          </mxGeometry>
        </mxCell>
        <mxCell id="1TGieU-8a1iTlZvp9suH-55" value="" style="group" parent="1TGieU-8a1iTlZvp9suH-84" vertex="1" connectable="0">
          <mxGeometry y="180" width="40" height="40" as="geometry" />
        </mxCell>
        <mxCell id="1TGieU-8a1iTlZvp9suH-53" value="" style="ellipse;whiteSpace=wrap;html=1;aspect=fixed;verticalAlign=middle;" parent="1TGieU-8a1iTlZvp9suH-55" vertex="1">
          <mxGeometry width="40" height="40" as="geometry" />
        </mxCell>
        <mxCell id="1TGieU-8a1iTlZvp9suH-54" value="" style="shape=flexArrow;endArrow=classic;html=1;rounded=0;fillColor=#dae8fc;strokeColor=#6c8ebf;width=6.8;endSize=3.8160000000000003;endWidth=6.382716049382716;" parent="1TGieU-8a1iTlZvp9suH-55" edge="1">
          <mxGeometry width="50" height="50" relative="1" as="geometry">
            <mxPoint x="35" y="20.139999999999986" as="sourcePoint" />
            <mxPoint x="5" y="19.850000000000023" as="targetPoint" />
          </mxGeometry>
        </mxCell>
        <mxCell id="1TGieU-8a1iTlZvp9suH-85" value="" style="curved=1;endArrow=classic;html=1;rounded=0;strokeWidth=2;" parent="1" edge="1">
          <mxGeometry width="50" height="50" relative="1" as="geometry">
            <mxPoint x="330" y="624" as="sourcePoint" />
            <mxPoint x="230" y="624" as="targetPoint" />
            <Array as="points">
              <mxPoint x="280" y="694" />
            </Array>
          </mxGeometry>
        </mxCell>
        <mxCell id="1TGieU-8a1iTlZvp9suH-87" value="" style="curved=1;endArrow=classic;html=1;rounded=0;strokeWidth=2;" parent="1" edge="1">
          <mxGeometry width="50" height="50" relative="1" as="geometry">
            <mxPoint x="440" y="620" as="sourcePoint" />
            <mxPoint x="340" y="620" as="targetPoint" />
            <Array as="points">
              <mxPoint x="390" y="690" />
            </Array>
          </mxGeometry>
        </mxCell>
        <mxCell id="FMHQTuZgahPFCYDuFRO8-1" value="" style="endArrow=none;html=1;rounded=0;" parent="1" source="1TGieU-8a1iTlZvp9suH-11" target="1TGieU-8a1iTlZvp9suH-1" edge="1">
          <mxGeometry width="50" height="50" relative="1" as="geometry">
            <mxPoint x="480" y="410" as="sourcePoint" />
            <mxPoint x="530" y="360" as="targetPoint" />
          </mxGeometry>
        </mxCell>
        <mxCell id="FMHQTuZgahPFCYDuFRO8-2" value="" style="endArrow=none;html=1;rounded=0;" parent="1" source="1TGieU-8a1iTlZvp9suH-11" target="1TGieU-8a1iTlZvp9suH-26" edge="1">
          <mxGeometry width="50" height="50" relative="1" as="geometry">
            <mxPoint x="150" y="296" as="sourcePoint" />
            <mxPoint x="232" y="102" as="targetPoint" />
          </mxGeometry>
        </mxCell>
        <mxCell id="FMHQTuZgahPFCYDuFRO8-3" value="" style="endArrow=none;html=1;rounded=0;" parent="1" source="1TGieU-8a1iTlZvp9suH-11" target="1TGieU-8a1iTlZvp9suH-57" edge="1">
          <mxGeometry width="50" height="50" relative="1" as="geometry">
            <mxPoint x="155" y="299" as="sourcePoint" />
            <mxPoint x="227" y="215" as="targetPoint" />
          </mxGeometry>
        </mxCell>
        <mxCell id="FMHQTuZgahPFCYDuFRO8-4" value="" style="endArrow=none;html=1;rounded=0;entryX=0.229;entryY=-0.038;entryDx=0;entryDy=0;entryPerimeter=0;" parent="1" source="1TGieU-8a1iTlZvp9suH-11" target="1TGieU-8a1iTlZvp9suH-59" edge="1">
          <mxGeometry width="50" height="50" relative="1" as="geometry">
            <mxPoint x="152" y="331" as="sourcePoint" />
            <mxPoint x="230" y="465" as="targetPoint" />
          </mxGeometry>
        </mxCell>
        <mxCell id="FMHQTuZgahPFCYDuFRO8-5" value="" style="endArrow=none;html=1;rounded=0;" parent="1" source="1TGieU-8a1iTlZvp9suH-24" target="1TGieU-8a1iTlZvp9suH-58" edge="1">
          <mxGeometry width="50" height="50" relative="1" as="geometry">
            <mxPoint x="148" y="333" as="sourcePoint" />
            <mxPoint x="229" y="576" as="targetPoint" />
          </mxGeometry>
        </mxCell>
        <mxCell id="FMHQTuZgahPFCYDuFRO8-6" value="" style="endArrow=none;html=1;rounded=0;" parent="1" source="1TGieU-8a1iTlZvp9suH-24" target="1TGieU-8a1iTlZvp9suH-57" edge="1">
          <mxGeometry width="50" height="50" relative="1" as="geometry">
            <mxPoint x="153" y="401" as="sourcePoint" />
            <mxPoint x="229" y="523" as="targetPoint" />
          </mxGeometry>
        </mxCell>
        <mxCell id="FMHQTuZgahPFCYDuFRO8-7" value="" style="endArrow=none;html=1;rounded=0;" parent="1" source="1TGieU-8a1iTlZvp9suH-24" target="1TGieU-8a1iTlZvp9suH-27" edge="1">
          <mxGeometry width="50" height="50" relative="1" as="geometry">
            <mxPoint x="156" y="398" as="sourcePoint" />
            <mxPoint x="226" y="468" as="targetPoint" />
          </mxGeometry>
        </mxCell>
        <mxCell id="FMHQTuZgahPFCYDuFRO8-8" value="" style="endArrow=none;html=1;rounded=0;" parent="1" source="1TGieU-8a1iTlZvp9suH-24" target="1TGieU-8a1iTlZvp9suH-25" edge="1">
          <mxGeometry width="50" height="50" relative="1" as="geometry">
            <mxPoint x="154" y="368" as="sourcePoint" />
            <mxPoint x="228" y="274" as="targetPoint" />
          </mxGeometry>
        </mxCell>
        <mxCell id="FMHQTuZgahPFCYDuFRO8-9" value="" style="endArrow=none;html=1;rounded=0;" parent="1" source="1TGieU-8a1iTlZvp9suH-1" target="1TGieU-8a1iTlZvp9suH-29" edge="1">
          <mxGeometry width="50" height="50" relative="1" as="geometry">
            <mxPoint x="149" y="365" as="sourcePoint" />
            <mxPoint x="232" y="161" as="targetPoint" />
          </mxGeometry>
        </mxCell>
        <mxCell id="FMHQTuZgahPFCYDuFRO8-10" value="" style="endArrow=none;html=1;rounded=0;" parent="1" source="1TGieU-8a1iTlZvp9suH-1" target="1TGieU-8a1iTlZvp9suH-32" edge="1">
          <mxGeometry width="50" height="50" relative="1" as="geometry">
            <mxPoint x="260" y="84" as="sourcePoint" />
            <mxPoint x="323" y="84" as="targetPoint" />
          </mxGeometry>
        </mxCell>
        <mxCell id="FMHQTuZgahPFCYDuFRO8-11" value="" style="endArrow=none;html=1;rounded=0;" parent="1" source="1TGieU-8a1iTlZvp9suH-25" target="1TGieU-8a1iTlZvp9suH-31" edge="1">
          <mxGeometry width="50" height="50" relative="1" as="geometry">
            <mxPoint x="250" y="101" as="sourcePoint" />
            <mxPoint x="333" y="241" as="targetPoint" />
          </mxGeometry>
        </mxCell>
        <mxCell id="FMHQTuZgahPFCYDuFRO8-12" value="" style="endArrow=none;html=1;rounded=0;" parent="1" source="1TGieU-8a1iTlZvp9suH-25" target="1TGieU-8a1iTlZvp9suH-29" edge="1">
          <mxGeometry width="50" height="50" relative="1" as="geometry">
            <mxPoint x="257" y="152" as="sourcePoint" />
            <mxPoint x="326" y="190" as="targetPoint" />
          </mxGeometry>
        </mxCell>
        <mxCell id="FMHQTuZgahPFCYDuFRO8-13" value="" style="endArrow=none;html=1;rounded=0;" parent="1" source="1TGieU-8a1iTlZvp9suH-56" target="1TGieU-8a1iTlZvp9suH-30" edge="1">
          <mxGeometry width="50" height="50" relative="1" as="geometry">
            <mxPoint x="257" y="132" as="sourcePoint" />
            <mxPoint x="326" y="94" as="targetPoint" />
          </mxGeometry>
        </mxCell>
        <mxCell id="FMHQTuZgahPFCYDuFRO8-14" value="" style="endArrow=none;html=1;rounded=0;" parent="1" source="1TGieU-8a1iTlZvp9suH-56" target="1TGieU-8a1iTlZvp9suH-65" edge="1">
          <mxGeometry width="50" height="50" relative="1" as="geometry">
            <mxPoint x="247" y="405" as="sourcePoint" />
            <mxPoint x="336" y="161" as="targetPoint" />
          </mxGeometry>
        </mxCell>
        <mxCell id="FMHQTuZgahPFCYDuFRO8-15" value="" style="endArrow=none;html=1;rounded=0;exitX=1;exitY=1;exitDx=0;exitDy=0;" parent="1" source="1TGieU-8a1iTlZvp9suH-56" target="1TGieU-8a1iTlZvp9suH-68" edge="1">
          <mxGeometry width="50" height="50" relative="1" as="geometry">
            <mxPoint x="260" y="424" as="sourcePoint" />
            <mxPoint x="323" y="424" as="targetPoint" />
          </mxGeometry>
        </mxCell>
        <mxCell id="FMHQTuZgahPFCYDuFRO8-16" value="" style="endArrow=none;html=1;rounded=0;" parent="1" source="1TGieU-8a1iTlZvp9suH-59" target="1TGieU-8a1iTlZvp9suH-68" edge="1">
          <mxGeometry width="50" height="50" relative="1" as="geometry">
            <mxPoint x="254" y="438" as="sourcePoint" />
            <mxPoint x="333" y="581" as="targetPoint" />
          </mxGeometry>
        </mxCell>
        <mxCell id="FMHQTuZgahPFCYDuFRO8-17" value="" style="endArrow=none;html=1;rounded=0;" parent="1" source="1TGieU-8a1iTlZvp9suH-58" target="1TGieU-8a1iTlZvp9suH-66" edge="1">
          <mxGeometry width="50" height="50" relative="1" as="geometry">
            <mxPoint x="260" y="598" as="sourcePoint" />
            <mxPoint x="323" y="598" as="targetPoint" />
          </mxGeometry>
        </mxCell>
        <mxCell id="FMHQTuZgahPFCYDuFRO8-18" value="" style="endArrow=none;html=1;rounded=0;" parent="1" source="1TGieU-8a1iTlZvp9suH-57" target="1TGieU-8a1iTlZvp9suH-67" edge="1">
          <mxGeometry width="50" height="50" relative="1" as="geometry">
            <mxPoint x="257" y="530" as="sourcePoint" />
            <mxPoint x="326" y="492" as="targetPoint" />
          </mxGeometry>
        </mxCell>
        <mxCell id="FMHQTuZgahPFCYDuFRO8-20" value="" style="endArrow=none;html=1;rounded=0;" parent="1" source="1TGieU-8a1iTlZvp9suH-58" target="1TGieU-8a1iTlZvp9suH-32" edge="1">
          <mxGeometry width="50" height="50" relative="1" as="geometry">
            <mxPoint x="257" y="492" as="sourcePoint" />
            <mxPoint x="326" y="530" as="targetPoint" />
          </mxGeometry>
        </mxCell>
        <mxCell id="FMHQTuZgahPFCYDuFRO8-21" value="" style="endArrow=none;html=1;rounded=0;exitX=1;exitY=1;exitDx=0;exitDy=0;" parent="1" source="1TGieU-8a1iTlZvp9suH-25" target="1TGieU-8a1iTlZvp9suH-66" edge="1">
          <mxGeometry width="50" height="50" relative="1" as="geometry">
            <mxPoint x="247" y="521" as="sourcePoint" />
            <mxPoint x="336" y="277" as="targetPoint" />
          </mxGeometry>
        </mxCell>
        <mxCell id="FMHQTuZgahPFCYDuFRO8-22" value="" style="endArrow=none;html=1;rounded=0;" parent="1" source="1TGieU-8a1iTlZvp9suH-27" target="1TGieU-8a1iTlZvp9suH-67" edge="1">
          <mxGeometry width="50" height="50" relative="1" as="geometry">
            <mxPoint x="254" y="156" as="sourcePoint" />
            <mxPoint x="338" y="463" as="targetPoint" />
          </mxGeometry>
        </mxCell>
        <mxCell id="FMHQTuZgahPFCYDuFRO8-23" value="" style="endArrow=none;html=1;rounded=0;" parent="1" source="1TGieU-8a1iTlZvp9suH-26" target="1TGieU-8a1iTlZvp9suH-32" edge="1">
          <mxGeometry width="50" height="50" relative="1" as="geometry">
            <mxPoint x="254" y="156" as="sourcePoint" />
            <mxPoint x="338" y="463" as="targetPoint" />
          </mxGeometry>
        </mxCell>
        <mxCell id="FMHQTuZgahPFCYDuFRO8-31" value="" style="endArrow=none;html=1;rounded=0;" parent="1" source="1TGieU-8a1iTlZvp9suH-68" target="1TGieU-8a1iTlZvp9suH-76" edge="1">
          <mxGeometry width="50" height="50" relative="1" as="geometry">
            <mxPoint x="353" y="598" as="sourcePoint" />
            <mxPoint x="416" y="598" as="targetPoint" />
          </mxGeometry>
        </mxCell>
        <mxCell id="FMHQTuZgahPFCYDuFRO8-30" value="" style="endArrow=none;html=1;rounded=0;" parent="1" source="1TGieU-8a1iTlZvp9suH-65" target="1TGieU-8a1iTlZvp9suH-76" edge="1">
          <mxGeometry width="50" height="50" relative="1" as="geometry">
            <mxPoint x="347" y="438" as="sourcePoint" />
            <mxPoint x="426" y="581" as="targetPoint" />
          </mxGeometry>
        </mxCell>
        <mxCell id="FMHQTuZgahPFCYDuFRO8-32" value="" style="endArrow=none;html=1;rounded=0;" parent="1" source="1TGieU-8a1iTlZvp9suH-67" target="1TGieU-8a1iTlZvp9suH-74" edge="1">
          <mxGeometry width="50" height="50" relative="1" as="geometry">
            <mxPoint x="350" y="530" as="sourcePoint" />
            <mxPoint x="419" y="492" as="targetPoint" />
          </mxGeometry>
        </mxCell>
        <mxCell id="FMHQTuZgahPFCYDuFRO8-33" value="" style="endArrow=none;html=1;rounded=0;" parent="1" source="1TGieU-8a1iTlZvp9suH-66" target="1TGieU-8a1iTlZvp9suH-75" edge="1">
          <mxGeometry width="50" height="50" relative="1" as="geometry">
            <mxPoint x="350" y="492" as="sourcePoint" />
            <mxPoint x="419" y="530" as="targetPoint" />
          </mxGeometry>
        </mxCell>
        <mxCell id="FMHQTuZgahPFCYDuFRO8-34" value="" style="endArrow=none;html=1;rounded=0;" parent="1" source="1TGieU-8a1iTlZvp9suH-67" target="1TGieU-8a1iTlZvp9suH-37" edge="1">
          <mxGeometry width="50" height="50" relative="1" as="geometry">
            <mxPoint x="340" y="521" as="sourcePoint" />
            <mxPoint x="429" y="277" as="targetPoint" />
          </mxGeometry>
        </mxCell>
        <mxCell id="FMHQTuZgahPFCYDuFRO8-29" value="" style="endArrow=none;html=1;rounded=0;" parent="1" source="1TGieU-8a1iTlZvp9suH-65" target="1TGieU-8a1iTlZvp9suH-73" edge="1">
          <mxGeometry width="50" height="50" relative="1" as="geometry">
            <mxPoint x="353" y="424" as="sourcePoint" />
            <mxPoint x="416" y="424" as="targetPoint" />
          </mxGeometry>
        </mxCell>
        <mxCell id="FMHQTuZgahPFCYDuFRO8-28" value="" style="endArrow=none;html=1;rounded=0;" parent="1" source="1TGieU-8a1iTlZvp9suH-65" target="1TGieU-8a1iTlZvp9suH-35" edge="1">
          <mxGeometry width="50" height="50" relative="1" as="geometry">
            <mxPoint x="340" y="405" as="sourcePoint" />
            <mxPoint x="429" y="161" as="targetPoint" />
          </mxGeometry>
        </mxCell>
        <mxCell id="FMHQTuZgahPFCYDuFRO8-36" value="" style="endArrow=none;html=1;rounded=0;" parent="1" source="1TGieU-8a1iTlZvp9suH-32" target="1TGieU-8a1iTlZvp9suH-75" edge="1">
          <mxGeometry width="50" height="50" relative="1" as="geometry">
            <mxPoint x="340" y="277" as="sourcePoint" />
            <mxPoint x="429" y="521" as="targetPoint" />
          </mxGeometry>
        </mxCell>
        <mxCell id="FMHQTuZgahPFCYDuFRO8-37" value="" style="endArrow=none;html=1;rounded=0;" parent="1" source="1TGieU-8a1iTlZvp9suH-31" target="1TGieU-8a1iTlZvp9suH-37" edge="1">
          <mxGeometry width="50" height="50" relative="1" as="geometry">
            <mxPoint x="350" y="210" as="sourcePoint" />
            <mxPoint x="419" y="248" as="targetPoint" />
          </mxGeometry>
        </mxCell>
        <mxCell id="FMHQTuZgahPFCYDuFRO8-25" value="" style="endArrow=none;html=1;rounded=0;" parent="1" source="1TGieU-8a1iTlZvp9suH-29" target="1TGieU-8a1iTlZvp9suH-37" edge="1">
          <mxGeometry width="50" height="50" relative="1" as="geometry">
            <mxPoint x="343" y="101" as="sourcePoint" />
            <mxPoint x="426" y="241" as="targetPoint" />
          </mxGeometry>
        </mxCell>
        <mxCell id="FMHQTuZgahPFCYDuFRO8-27" value="" style="endArrow=none;html=1;rounded=0;" parent="1" source="1TGieU-8a1iTlZvp9suH-30" target="1TGieU-8a1iTlZvp9suH-34" edge="1">
          <mxGeometry width="50" height="50" relative="1" as="geometry">
            <mxPoint x="350" y="132" as="sourcePoint" />
            <mxPoint x="419" y="94" as="targetPoint" />
          </mxGeometry>
        </mxCell>
        <mxCell id="FMHQTuZgahPFCYDuFRO8-24" value="" style="endArrow=none;html=1;rounded=0;" parent="1" source="1TGieU-8a1iTlZvp9suH-29" target="1TGieU-8a1iTlZvp9suH-34" edge="1">
          <mxGeometry width="50" height="50" relative="1" as="geometry">
            <mxPoint x="353" y="84" as="sourcePoint" />
            <mxPoint x="416" y="84" as="targetPoint" />
          </mxGeometry>
        </mxCell>
        <mxCell id="FMHQTuZgahPFCYDuFRO8-26" value="" style="endArrow=none;html=1;rounded=0;exitX=1;exitY=1;exitDx=0;exitDy=0;" parent="1" source="1TGieU-8a1iTlZvp9suH-30" target="1TGieU-8a1iTlZvp9suH-36" edge="1">
          <mxGeometry width="50" height="50" relative="1" as="geometry">
            <mxPoint x="350" y="152" as="sourcePoint" />
            <mxPoint x="419" y="190" as="targetPoint" />
          </mxGeometry>
        </mxCell>
        <mxCell id="FMHQTuZgahPFCYDuFRO8-35" value="" style="endArrow=none;html=1;rounded=0;" parent="1" source="1TGieU-8a1iTlZvp9suH-30" target="1TGieU-8a1iTlZvp9suH-74" edge="1">
          <mxGeometry width="50" height="50" relative="1" as="geometry">
            <mxPoint x="347" y="156" as="sourcePoint" />
            <mxPoint x="431" y="463" as="targetPoint" />
          </mxGeometry>
        </mxCell>
        <mxCell id="FMHQTuZgahPFCYDuFRO8-41" value="" style="endArrow=none;html=1;rounded=0;entryX=0;entryY=0.5;entryDx=0;entryDy=0;" parent="1" source="1TGieU-8a1iTlZvp9suH-34" target="1TGieU-8a1iTlZvp9suH-39" edge="1">
          <mxGeometry width="50" height="50" relative="1" as="geometry">
            <mxPoint x="360" y="132" as="sourcePoint" />
            <mxPoint x="428" y="90" as="targetPoint" />
          </mxGeometry>
        </mxCell>
        <mxCell id="FMHQTuZgahPFCYDuFRO8-42" value="" style="endArrow=none;html=1;rounded=0;" parent="1" source="1TGieU-8a1iTlZvp9suH-37" target="1TGieU-8a1iTlZvp9suH-53" edge="1">
          <mxGeometry width="50" height="50" relative="1" as="geometry">
            <mxPoint x="454" y="98" as="sourcePoint" />
            <mxPoint x="530" y="254" as="targetPoint" />
          </mxGeometry>
        </mxCell>
        <mxCell id="FMHQTuZgahPFCYDuFRO8-43" value="" style="endArrow=none;html=1;rounded=0;" parent="1" source="1TGieU-8a1iTlZvp9suH-76" target="1TGieU-8a1iTlZvp9suH-53" edge="1">
          <mxGeometry width="50" height="50" relative="1" as="geometry">
            <mxPoint x="455" y="271" as="sourcePoint" />
            <mxPoint x="540" y="417" as="targetPoint" />
          </mxGeometry>
        </mxCell>
        <mxCell id="FMHQTuZgahPFCYDuFRO8-44" value="" style="endArrow=none;html=1;rounded=0;" parent="1" source="1TGieU-8a1iTlZvp9suH-73" target="1TGieU-8a1iTlZvp9suH-43" edge="1">
          <mxGeometry width="50" height="50" relative="1" as="geometry">
            <mxPoint x="456" y="581" as="sourcePoint" />
            <mxPoint x="539" y="451" as="targetPoint" />
          </mxGeometry>
        </mxCell>
        <mxCell id="FMHQTuZgahPFCYDuFRO8-45" value="" style="endArrow=none;html=1;rounded=0;" parent="1" source="1TGieU-8a1iTlZvp9suH-74" target="1TGieU-8a1iTlZvp9suH-39" edge="1">
          <mxGeometry width="50" height="50" relative="1" as="geometry">
            <mxPoint x="459" y="410" as="sourcePoint" />
            <mxPoint x="536" y="328" as="targetPoint" />
          </mxGeometry>
        </mxCell>
        <mxCell id="FMHQTuZgahPFCYDuFRO8-47" value="" style="endArrow=none;html=1;rounded=0;" parent="1" source="1TGieU-8a1iTlZvp9suH-36" target="1TGieU-8a1iTlZvp9suH-44" edge="1">
          <mxGeometry width="50" height="50" relative="1" as="geometry">
            <mxPoint x="454" y="98" as="sourcePoint" />
            <mxPoint x="530" y="254" as="targetPoint" />
          </mxGeometry>
        </mxCell>
        <mxCell id="FMHQTuZgahPFCYDuFRO8-48" value="" style="endArrow=none;html=1;rounded=0;" parent="1" source="1TGieU-8a1iTlZvp9suH-35" target="1TGieU-8a1iTlZvp9suH-43" edge="1">
          <mxGeometry width="50" height="50" relative="1" as="geometry">
            <mxPoint x="455" y="213" as="sourcePoint" />
            <mxPoint x="540" y="357" as="targetPoint" />
          </mxGeometry>
        </mxCell>
        <mxCell id="FMHQTuZgahPFCYDuFRO8-49" value="" style="endArrow=none;html=1;rounded=0;" parent="1" source="1TGieU-8a1iTlZvp9suH-74" target="1TGieU-8a1iTlZvp9suH-44" edge="1">
          <mxGeometry width="50" height="50" relative="1" as="geometry">
            <mxPoint x="459" y="410" as="sourcePoint" />
            <mxPoint x="536" y="328" as="targetPoint" />
          </mxGeometry>
        </mxCell>
        <mxCell id="FMHQTuZgahPFCYDuFRO8-50" value="" style="endArrow=none;html=1;rounded=0;" parent="1" source="1TGieU-8a1iTlZvp9suH-37" target="1TGieU-8a1iTlZvp9suH-39" edge="1">
          <mxGeometry width="50" height="50" relative="1" as="geometry">
            <mxPoint x="455" y="271" as="sourcePoint" />
            <mxPoint x="540" y="417" as="targetPoint" />
          </mxGeometry>
        </mxCell>
      </root>
    </mxGraphModel>
  </diagram>
  <diagram name="split-feedback" id="BdTqkZql8zA4smZLPKyu">
    <mxGraphModel dx="1434" dy="839" grid="1" gridSize="10" guides="1" tooltips="1" connect="1" arrows="1" fold="1" page="1" pageScale="1" pageWidth="583" pageHeight="827" math="0" shadow="0">
      <root>
        <mxCell id="t6jlalmLybLtRW--mZOW-0" />
        <mxCell id="t6jlalmLybLtRW--mZOW-1" parent="t6jlalmLybLtRW--mZOW-0" />
        <mxCell id="qXPC0ymmBc8wo0Yxa-dH-42" value="" style="group;fillColor=#fff2cc;strokeColor=#d6b656;" parent="t6jlalmLybLtRW--mZOW-1" vertex="1" connectable="0">
          <mxGeometry x="200" y="4" width="60" height="604" as="geometry" />
        </mxCell>
        <mxCell id="t6jlalmLybLtRW--mZOW-7" value="" style="ellipse;whiteSpace=wrap;html=1;aspect=fixed;" parent="qXPC0ymmBc8wo0Yxa-dH-42" vertex="1">
          <mxGeometry x="10" y="50" width="40" height="40" as="geometry" />
        </mxCell>
        <mxCell id="t6jlalmLybLtRW--mZOW-8" value="" style="ellipse;whiteSpace=wrap;html=1;aspect=fixed;" parent="qXPC0ymmBc8wo0Yxa-dH-42" vertex="1">
          <mxGeometry x="10" y="107" width="40" height="40" as="geometry" />
        </mxCell>
        <mxCell id="t6jlalmLybLtRW--mZOW-9" value="" style="ellipse;whiteSpace=wrap;html=1;aspect=fixed;" parent="qXPC0ymmBc8wo0Yxa-dH-42" vertex="1">
          <mxGeometry x="10" y="164" width="40" height="40" as="geometry" />
        </mxCell>
        <mxCell id="t6jlalmLybLtRW--mZOW-10" value="" style="ellipse;whiteSpace=wrap;html=1;aspect=fixed;" parent="qXPC0ymmBc8wo0Yxa-dH-42" vertex="1">
          <mxGeometry x="10" y="221" width="40" height="40" as="geometry" />
        </mxCell>
        <mxCell id="t6jlalmLybLtRW--mZOW-11" value="&lt;font face=&quot;Architects Daughter&quot; data-font-src=&quot;https://fonts.googleapis.com/css?family=Architects+Daughter&quot; style=&quot;font-size: 22px;&quot;&gt;PCx&lt;/font&gt;" style="text;html=1;align=center;verticalAlign=middle;resizable=0;points=[];autosize=1;strokeColor=none;fillColor=none;fontSize=21;" parent="qXPC0ymmBc8wo0Yxa-dH-42" vertex="1">
          <mxGeometry width="60" height="40" as="geometry" />
        </mxCell>
        <mxCell id="t6jlalmLybLtRW--mZOW-12" value="" style="ellipse;whiteSpace=wrap;html=1;aspect=fixed;" parent="qXPC0ymmBc8wo0Yxa-dH-42" vertex="1">
          <mxGeometry x="10" y="393" width="40" height="40" as="geometry" />
        </mxCell>
        <mxCell id="t6jlalmLybLtRW--mZOW-13" value="" style="ellipse;whiteSpace=wrap;html=1;aspect=fixed;" parent="qXPC0ymmBc8wo0Yxa-dH-42" vertex="1">
          <mxGeometry x="10" y="450" width="40" height="40" as="geometry" />
        </mxCell>
        <mxCell id="t6jlalmLybLtRW--mZOW-14" value="" style="ellipse;whiteSpace=wrap;html=1;aspect=fixed;" parent="qXPC0ymmBc8wo0Yxa-dH-42" vertex="1">
          <mxGeometry x="10" y="507" width="40" height="40" as="geometry" />
        </mxCell>
        <mxCell id="t6jlalmLybLtRW--mZOW-15" value="" style="ellipse;whiteSpace=wrap;html=1;aspect=fixed;" parent="qXPC0ymmBc8wo0Yxa-dH-42" vertex="1">
          <mxGeometry x="10" y="564" width="40" height="40" as="geometry" />
        </mxCell>
        <mxCell id="qXPC0ymmBc8wo0Yxa-dH-17" value="" style="ellipse;whiteSpace=wrap;html=1;aspect=fixed;" parent="qXPC0ymmBc8wo0Yxa-dH-42" vertex="1">
          <mxGeometry x="10" y="278" width="40" height="40" as="geometry" />
        </mxCell>
        <mxCell id="qXPC0ymmBc8wo0Yxa-dH-18" value="" style="ellipse;whiteSpace=wrap;html=1;aspect=fixed;" parent="qXPC0ymmBc8wo0Yxa-dH-42" vertex="1">
          <mxGeometry x="10" y="336" width="40" height="40" as="geometry" />
        </mxCell>
        <mxCell id="t6jlalmLybLtRW--mZOW-2" value="&lt;font face=&quot;Architects Daughter&quot; data-font-src=&quot;https://fonts.googleapis.com/css?family=Architects+Daughter&quot; style=&quot;font-size: 22px;&quot;&gt;Location&lt;/font&gt;" style="text;html=1;align=center;verticalAlign=middle;resizable=0;points=[];autosize=1;strokeColor=none;fillColor=none;fontSize=21;" parent="t6jlalmLybLtRW--mZOW-1" vertex="1">
          <mxGeometry y="284" width="110" height="40" as="geometry" />
        </mxCell>
        <mxCell id="t6jlalmLybLtRW--mZOW-3" value="" style="ellipse;whiteSpace=wrap;html=1;aspect=fixed;" parent="t6jlalmLybLtRW--mZOW-1" vertex="1">
          <mxGeometry x="112" y="284" width="40" height="40" as="geometry" />
        </mxCell>
        <mxCell id="t6jlalmLybLtRW--mZOW-4" value="&lt;font face=&quot;Architects Daughter&quot; data-font-src=&quot;https://fonts.googleapis.com/css?family=Architects+Daughter&quot; style=&quot;font-size: 22px;&quot;&gt;Odor&lt;/font&gt;" style="text;html=1;align=center;verticalAlign=middle;resizable=0;points=[];autosize=1;strokeColor=none;fillColor=none;fontSize=21;" parent="t6jlalmLybLtRW--mZOW-1" vertex="1">
          <mxGeometry x="20" y="354" width="70" height="40" as="geometry" />
        </mxCell>
        <mxCell id="t6jlalmLybLtRW--mZOW-5" value="" style="ellipse;whiteSpace=wrap;html=1;aspect=fixed;" parent="t6jlalmLybLtRW--mZOW-1" vertex="1">
          <mxGeometry x="112" y="354" width="40" height="40" as="geometry" />
        </mxCell>
        <mxCell id="t6jlalmLybLtRW--mZOW-48" value="" style="group" parent="t6jlalmLybLtRW--mZOW-1" vertex="1" connectable="0">
          <mxGeometry x="520" y="224" width="40" height="220" as="geometry" />
        </mxCell>
        <mxCell id="t6jlalmLybLtRW--mZOW-49" value="" style="group" parent="t6jlalmLybLtRW--mZOW-48" vertex="1" connectable="0">
          <mxGeometry width="40" height="40" as="geometry" />
        </mxCell>
        <mxCell id="t6jlalmLybLtRW--mZOW-50" value="" style="ellipse;whiteSpace=wrap;html=1;aspect=fixed;" parent="t6jlalmLybLtRW--mZOW-49" vertex="1">
          <mxGeometry width="40" height="40" as="geometry" />
        </mxCell>
        <mxCell id="t6jlalmLybLtRW--mZOW-51" value="" style="shape=flexArrow;endArrow=classic;html=1;rounded=0;fillColor=#dae8fc;strokeColor=#6c8ebf;width=6.8;endSize=3.8160000000000003;endWidth=6.382716049382716;" parent="t6jlalmLybLtRW--mZOW-49" edge="1">
          <mxGeometry width="50" height="50" relative="1" as="geometry">
            <mxPoint x="19.83000000000004" y="35" as="sourcePoint" />
            <mxPoint x="19.83000000000004" y="5" as="targetPoint" />
          </mxGeometry>
        </mxCell>
        <mxCell id="t6jlalmLybLtRW--mZOW-52" value="" style="group" parent="t6jlalmLybLtRW--mZOW-48" vertex="1" connectable="0">
          <mxGeometry y="60" width="40" height="40" as="geometry" />
        </mxCell>
        <mxCell id="t6jlalmLybLtRW--mZOW-53" value="" style="ellipse;whiteSpace=wrap;html=1;aspect=fixed;" parent="t6jlalmLybLtRW--mZOW-52" vertex="1">
          <mxGeometry width="40" height="40" as="geometry" />
        </mxCell>
        <mxCell id="t6jlalmLybLtRW--mZOW-54" value="" style="shape=flexArrow;endArrow=classic;html=1;rounded=0;fillColor=#dae8fc;strokeColor=#6c8ebf;width=6.8;endSize=3.8160000000000003;endWidth=6.382716049382716;" parent="t6jlalmLybLtRW--mZOW-52" edge="1">
          <mxGeometry width="50" height="50" relative="1" as="geometry">
            <mxPoint x="19.833333333333485" y="5" as="sourcePoint" />
            <mxPoint x="19.833333333333485" y="35" as="targetPoint" />
          </mxGeometry>
        </mxCell>
        <mxCell id="t6jlalmLybLtRW--mZOW-55" value="" style="group" parent="t6jlalmLybLtRW--mZOW-48" vertex="1" connectable="0">
          <mxGeometry y="120" width="40" height="40" as="geometry" />
        </mxCell>
        <mxCell id="t6jlalmLybLtRW--mZOW-56" value="" style="ellipse;whiteSpace=wrap;html=1;aspect=fixed;verticalAlign=middle;" parent="t6jlalmLybLtRW--mZOW-55" vertex="1">
          <mxGeometry width="40" height="40" as="geometry" />
        </mxCell>
        <mxCell id="t6jlalmLybLtRW--mZOW-57" value="" style="shape=flexArrow;endArrow=classic;html=1;rounded=0;fillColor=#dae8fc;strokeColor=#6c8ebf;width=6.8;endSize=3.8160000000000003;endWidth=6.382716049382716;" parent="t6jlalmLybLtRW--mZOW-55" edge="1">
          <mxGeometry width="50" height="50" relative="1" as="geometry">
            <mxPoint x="5" y="20.139999999999986" as="sourcePoint" />
            <mxPoint x="35" y="19.850000000000023" as="targetPoint" />
          </mxGeometry>
        </mxCell>
        <mxCell id="t6jlalmLybLtRW--mZOW-58" value="" style="group" parent="t6jlalmLybLtRW--mZOW-48" vertex="1" connectable="0">
          <mxGeometry y="180" width="40" height="40" as="geometry" />
        </mxCell>
        <mxCell id="t6jlalmLybLtRW--mZOW-59" value="" style="ellipse;whiteSpace=wrap;html=1;aspect=fixed;verticalAlign=middle;" parent="t6jlalmLybLtRW--mZOW-58" vertex="1">
          <mxGeometry width="40" height="40" as="geometry" />
        </mxCell>
        <mxCell id="t6jlalmLybLtRW--mZOW-60" value="" style="shape=flexArrow;endArrow=classic;html=1;rounded=0;fillColor=#dae8fc;strokeColor=#6c8ebf;width=6.8;endSize=3.8160000000000003;endWidth=6.382716049382716;" parent="t6jlalmLybLtRW--mZOW-58" edge="1">
          <mxGeometry width="50" height="50" relative="1" as="geometry">
            <mxPoint x="35" y="20.139999999999986" as="sourcePoint" />
            <mxPoint x="5" y="19.850000000000023" as="targetPoint" />
          </mxGeometry>
        </mxCell>
        <mxCell id="qXPC0ymmBc8wo0Yxa-dH-0" value="" style="group;fillColor=#dae8fc;strokeColor=#6c8ebf;" parent="t6jlalmLybLtRW--mZOW-1" vertex="1" connectable="0">
          <mxGeometry x="352" y="344" width="70" height="264" as="geometry" />
        </mxCell>
        <mxCell id="t6jlalmLybLtRW--mZOW-21" value="" style="ellipse;whiteSpace=wrap;html=1;aspect=fixed;" parent="qXPC0ymmBc8wo0Yxa-dH-0" vertex="1">
          <mxGeometry x="15" y="50" width="40" height="40" as="geometry" />
        </mxCell>
        <mxCell id="t6jlalmLybLtRW--mZOW-22" value="" style="ellipse;whiteSpace=wrap;html=1;aspect=fixed;" parent="qXPC0ymmBc8wo0Yxa-dH-0" vertex="1">
          <mxGeometry x="15" y="108" width="40" height="40" as="geometry" />
        </mxCell>
        <mxCell id="t6jlalmLybLtRW--mZOW-23" value="" style="ellipse;whiteSpace=wrap;html=1;aspect=fixed;" parent="qXPC0ymmBc8wo0Yxa-dH-0" vertex="1">
          <mxGeometry x="15" y="166" width="40" height="40" as="geometry" />
        </mxCell>
        <mxCell id="t6jlalmLybLtRW--mZOW-24" value="" style="ellipse;whiteSpace=wrap;html=1;aspect=fixed;" parent="qXPC0ymmBc8wo0Yxa-dH-0" vertex="1">
          <mxGeometry x="15" y="224" width="40" height="40" as="geometry" />
        </mxCell>
        <mxCell id="t6jlalmLybLtRW--mZOW-25" value="&lt;font face=&quot;Architects Daughter&quot; data-font-src=&quot;https://fonts.googleapis.com/css?family=Architects+Daughter&quot; style=&quot;font-size: 22px;&quot;&gt;LEC&lt;/font&gt;" style="text;html=1;align=center;verticalAlign=middle;resizable=0;points=[];autosize=1;strokeColor=none;fillColor=none;fontSize=21;" parent="qXPC0ymmBc8wo0Yxa-dH-0" vertex="1">
          <mxGeometry width="70" height="40" as="geometry" />
        </mxCell>
        <mxCell id="qXPC0ymmBc8wo0Yxa-dH-1" value="" style="group;fillColor=#FFCCFF;strokeColor=#9673a6;" parent="t6jlalmLybLtRW--mZOW-1" vertex="1" connectable="0">
          <mxGeometry x="352" y="4" width="70" height="264" as="geometry" />
        </mxCell>
        <mxCell id="t6jlalmLybLtRW--mZOW-35" value="" style="ellipse;whiteSpace=wrap;html=1;aspect=fixed;" parent="qXPC0ymmBc8wo0Yxa-dH-1" vertex="1">
          <mxGeometry x="15" y="50" width="40" height="40" as="geometry" />
        </mxCell>
        <mxCell id="t6jlalmLybLtRW--mZOW-36" value="" style="ellipse;whiteSpace=wrap;html=1;aspect=fixed;" parent="qXPC0ymmBc8wo0Yxa-dH-1" vertex="1">
          <mxGeometry x="15" y="108" width="40" height="40" as="geometry" />
        </mxCell>
        <mxCell id="t6jlalmLybLtRW--mZOW-37" value="" style="ellipse;whiteSpace=wrap;html=1;aspect=fixed;" parent="qXPC0ymmBc8wo0Yxa-dH-1" vertex="1">
          <mxGeometry x="15" y="166" width="40" height="40" as="geometry" />
        </mxCell>
        <mxCell id="t6jlalmLybLtRW--mZOW-38" value="" style="ellipse;whiteSpace=wrap;html=1;aspect=fixed;" parent="qXPC0ymmBc8wo0Yxa-dH-1" vertex="1">
          <mxGeometry x="15" y="224" width="40" height="40" as="geometry" />
        </mxCell>
        <mxCell id="t6jlalmLybLtRW--mZOW-39" value="&lt;font face=&quot;Architects Daughter&quot; data-font-src=&quot;https://fonts.googleapis.com/css?family=Architects+Daughter&quot; style=&quot;font-size: 22px;&quot;&gt;Hip&lt;/font&gt;" style="text;html=1;align=center;verticalAlign=middle;resizable=0;points=[];autosize=1;strokeColor=none;fillColor=none;fontSize=21;" parent="qXPC0ymmBc8wo0Yxa-dH-1" vertex="1">
          <mxGeometry x="10" width="50" height="40" as="geometry" />
        </mxCell>
        <mxCell id="qXPC0ymmBc8wo0Yxa-dH-2" value="" style="endArrow=none;html=1;rounded=0;strokeWidth=1;" parent="t6jlalmLybLtRW--mZOW-1" source="t6jlalmLybLtRW--mZOW-7" target="t6jlalmLybLtRW--mZOW-35" edge="1">
          <mxGeometry width="50" height="50" relative="1" as="geometry">
            <mxPoint x="270" y="340" as="sourcePoint" />
            <mxPoint x="320" y="290" as="targetPoint" />
          </mxGeometry>
        </mxCell>
        <mxCell id="qXPC0ymmBc8wo0Yxa-dH-3" value="" style="endArrow=none;html=1;rounded=0;strokeWidth=1;" parent="t6jlalmLybLtRW--mZOW-1" source="t6jlalmLybLtRW--mZOW-7" target="t6jlalmLybLtRW--mZOW-36" edge="1">
          <mxGeometry width="50" height="50" relative="1" as="geometry">
            <mxPoint x="260" y="84" as="sourcePoint" />
            <mxPoint x="385" y="84" as="targetPoint" />
          </mxGeometry>
        </mxCell>
        <mxCell id="qXPC0ymmBc8wo0Yxa-dH-4" value="" style="endArrow=none;html=1;rounded=0;strokeWidth=1;" parent="t6jlalmLybLtRW--mZOW-1" source="t6jlalmLybLtRW--mZOW-7" target="t6jlalmLybLtRW--mZOW-37" edge="1">
          <mxGeometry width="50" height="50" relative="1" as="geometry">
            <mxPoint x="259" y="91" as="sourcePoint" />
            <mxPoint x="386" y="135" as="targetPoint" />
          </mxGeometry>
        </mxCell>
        <mxCell id="qXPC0ymmBc8wo0Yxa-dH-5" value="" style="endArrow=none;html=1;rounded=0;strokeWidth=1;" parent="t6jlalmLybLtRW--mZOW-1" source="t6jlalmLybLtRW--mZOW-10" target="t6jlalmLybLtRW--mZOW-38" edge="1">
          <mxGeometry width="50" height="50" relative="1" as="geometry">
            <mxPoint x="256" y="95" as="sourcePoint" />
            <mxPoint x="389" y="188" as="targetPoint" />
          </mxGeometry>
        </mxCell>
        <mxCell id="qXPC0ymmBc8wo0Yxa-dH-6" value="" style="endArrow=none;html=1;rounded=0;strokeWidth=1;" parent="t6jlalmLybLtRW--mZOW-1" source="t6jlalmLybLtRW--mZOW-10" target="t6jlalmLybLtRW--mZOW-37" edge="1">
          <mxGeometry width="50" height="50" relative="1" as="geometry">
            <mxPoint x="260" y="258" as="sourcePoint" />
            <mxPoint x="385" y="258" as="targetPoint" />
          </mxGeometry>
        </mxCell>
        <mxCell id="qXPC0ymmBc8wo0Yxa-dH-7" value="" style="endArrow=none;html=1;rounded=0;strokeWidth=1;" parent="t6jlalmLybLtRW--mZOW-1" source="t6jlalmLybLtRW--mZOW-10" target="t6jlalmLybLtRW--mZOW-36" edge="1">
          <mxGeometry width="50" height="50" relative="1" as="geometry">
            <mxPoint x="259" y="251" as="sourcePoint" />
            <mxPoint x="386" y="207" as="targetPoint" />
          </mxGeometry>
        </mxCell>
        <mxCell id="qXPC0ymmBc8wo0Yxa-dH-8" value="" style="endArrow=none;html=1;rounded=0;strokeWidth=1;" parent="t6jlalmLybLtRW--mZOW-1" source="t6jlalmLybLtRW--mZOW-7" target="t6jlalmLybLtRW--mZOW-23" edge="1">
          <mxGeometry width="50" height="50" relative="1" as="geometry">
            <mxPoint x="256" y="95" as="sourcePoint" />
            <mxPoint x="389" y="188" as="targetPoint" />
          </mxGeometry>
        </mxCell>
        <mxCell id="qXPC0ymmBc8wo0Yxa-dH-9" value="" style="endArrow=none;html=1;rounded=0;strokeWidth=1;" parent="t6jlalmLybLtRW--mZOW-1" source="t6jlalmLybLtRW--mZOW-7" target="t6jlalmLybLtRW--mZOW-22" edge="1">
          <mxGeometry width="50" height="50" relative="1" as="geometry">
            <mxPoint x="249" y="102" as="sourcePoint" />
            <mxPoint x="396" y="406" as="targetPoint" />
          </mxGeometry>
        </mxCell>
        <mxCell id="qXPC0ymmBc8wo0Yxa-dH-10" value="" style="endArrow=none;html=1;rounded=0;strokeWidth=1;" parent="t6jlalmLybLtRW--mZOW-1" source="t6jlalmLybLtRW--mZOW-35" target="t6jlalmLybLtRW--mZOW-12" edge="1">
          <mxGeometry width="50" height="50" relative="1" as="geometry">
            <mxPoint x="248" y="102" as="sourcePoint" />
            <mxPoint x="397" y="464" as="targetPoint" />
          </mxGeometry>
        </mxCell>
        <mxCell id="qXPC0ymmBc8wo0Yxa-dH-11" value="" style="endArrow=none;html=1;rounded=0;strokeWidth=1;entryX=0;entryY=0.5;entryDx=0;entryDy=0;" parent="t6jlalmLybLtRW--mZOW-1" source="t6jlalmLybLtRW--mZOW-12" target="t6jlalmLybLtRW--mZOW-21" edge="1">
          <mxGeometry width="50" height="50" relative="1" as="geometry">
            <mxPoint x="260" y="258" as="sourcePoint" />
            <mxPoint x="385" y="258" as="targetPoint" />
          </mxGeometry>
        </mxCell>
        <mxCell id="qXPC0ymmBc8wo0Yxa-dH-12" value="" style="endArrow=none;html=1;rounded=0;strokeWidth=1;" parent="t6jlalmLybLtRW--mZOW-1" source="t6jlalmLybLtRW--mZOW-12" target="t6jlalmLybLtRW--mZOW-22" edge="1">
          <mxGeometry width="50" height="50" relative="1" as="geometry">
            <mxPoint x="260" y="424" as="sourcePoint" />
            <mxPoint x="385" y="424" as="targetPoint" />
          </mxGeometry>
        </mxCell>
        <mxCell id="qXPC0ymmBc8wo0Yxa-dH-13" value="" style="endArrow=none;html=1;rounded=0;strokeWidth=1;" parent="t6jlalmLybLtRW--mZOW-1" source="t6jlalmLybLtRW--mZOW-15" target="t6jlalmLybLtRW--mZOW-24" edge="1">
          <mxGeometry width="50" height="50" relative="1" as="geometry">
            <mxPoint x="259" y="431" as="sourcePoint" />
            <mxPoint x="386" y="475" as="targetPoint" />
          </mxGeometry>
        </mxCell>
        <mxCell id="qXPC0ymmBc8wo0Yxa-dH-14" value="" style="endArrow=none;html=1;rounded=0;strokeWidth=1;entryX=0;entryY=1;entryDx=0;entryDy=0;" parent="t6jlalmLybLtRW--mZOW-1" source="t6jlalmLybLtRW--mZOW-15" target="t6jlalmLybLtRW--mZOW-23" edge="1">
          <mxGeometry width="50" height="50" relative="1" as="geometry">
            <mxPoint x="260" y="598" as="sourcePoint" />
            <mxPoint x="385" y="598" as="targetPoint" />
          </mxGeometry>
        </mxCell>
        <mxCell id="qXPC0ymmBc8wo0Yxa-dH-15" value="" style="endArrow=none;html=1;rounded=0;strokeWidth=1;" parent="t6jlalmLybLtRW--mZOW-1" source="t6jlalmLybLtRW--mZOW-15" target="t6jlalmLybLtRW--mZOW-38" edge="1">
          <mxGeometry width="50" height="50" relative="1" as="geometry">
            <mxPoint x="259" y="592" as="sourcePoint" />
            <mxPoint x="391" y="554" as="targetPoint" />
          </mxGeometry>
        </mxCell>
        <mxCell id="qXPC0ymmBc8wo0Yxa-dH-16" value="" style="endArrow=none;html=1;rounded=0;strokeWidth=1;" parent="t6jlalmLybLtRW--mZOW-1" source="t6jlalmLybLtRW--mZOW-15" target="t6jlalmLybLtRW--mZOW-37" edge="1">
          <mxGeometry width="50" height="50" relative="1" as="geometry">
            <mxPoint x="249" y="580" as="sourcePoint" />
            <mxPoint x="396" y="276" as="targetPoint" />
          </mxGeometry>
        </mxCell>
        <mxCell id="qXPC0ymmBc8wo0Yxa-dH-19" value="" style="endArrow=none;html=1;rounded=0;strokeWidth=1;" parent="t6jlalmLybLtRW--mZOW-1" source="t6jlalmLybLtRW--mZOW-38" target="qXPC0ymmBc8wo0Yxa-dH-17" edge="1">
          <mxGeometry width="50" height="50" relative="1" as="geometry">
            <mxPoint x="396" y="102" as="sourcePoint" />
            <mxPoint x="249" y="406" as="targetPoint" />
          </mxGeometry>
        </mxCell>
        <mxCell id="qXPC0ymmBc8wo0Yxa-dH-20" value="" style="endArrow=none;html=1;rounded=0;strokeWidth=1;" parent="t6jlalmLybLtRW--mZOW-1" source="t6jlalmLybLtRW--mZOW-21" target="qXPC0ymmBc8wo0Yxa-dH-17" edge="1">
          <mxGeometry width="50" height="50" relative="1" as="geometry">
            <mxPoint x="386" y="264" as="sourcePoint" />
            <mxPoint x="259" y="308" as="targetPoint" />
          </mxGeometry>
        </mxCell>
        <mxCell id="qXPC0ymmBc8wo0Yxa-dH-21" value="" style="endArrow=none;html=1;rounded=0;strokeWidth=1;" parent="t6jlalmLybLtRW--mZOW-1" source="t6jlalmLybLtRW--mZOW-21" target="qXPC0ymmBc8wo0Yxa-dH-18" edge="1">
          <mxGeometry width="50" height="50" relative="1" as="geometry">
            <mxPoint x="388" y="413" as="sourcePoint" />
            <mxPoint x="257" y="325" as="targetPoint" />
          </mxGeometry>
        </mxCell>
        <mxCell id="qXPC0ymmBc8wo0Yxa-dH-22" value="" style="endArrow=none;html=1;rounded=0;strokeWidth=1;" parent="t6jlalmLybLtRW--mZOW-1" source="t6jlalmLybLtRW--mZOW-38" target="qXPC0ymmBc8wo0Yxa-dH-18" edge="1">
          <mxGeometry width="50" height="50" relative="1" as="geometry">
            <mxPoint x="398" y="423" as="sourcePoint" />
            <mxPoint x="259" y="376" as="targetPoint" />
          </mxGeometry>
        </mxCell>
        <mxCell id="qXPC0ymmBc8wo0Yxa-dH-23" value="" style="endArrow=none;html=1;rounded=0;strokeWidth=1;" parent="t6jlalmLybLtRW--mZOW-1" source="t6jlalmLybLtRW--mZOW-3" target="t6jlalmLybLtRW--mZOW-8" edge="1">
          <mxGeometry width="50" height="50" relative="1" as="geometry">
            <mxPoint x="256" y="95" as="sourcePoint" />
            <mxPoint x="389" y="189" as="targetPoint" />
          </mxGeometry>
        </mxCell>
        <mxCell id="qXPC0ymmBc8wo0Yxa-dH-24" value="" style="endArrow=none;html=1;rounded=0;strokeWidth=1;" parent="t6jlalmLybLtRW--mZOW-1" source="t6jlalmLybLtRW--mZOW-3" target="t6jlalmLybLtRW--mZOW-10" edge="1">
          <mxGeometry width="50" height="50" relative="1" as="geometry">
            <mxPoint x="152" y="297" as="sourcePoint" />
            <mxPoint x="230" y="159" as="targetPoint" />
          </mxGeometry>
        </mxCell>
        <mxCell id="qXPC0ymmBc8wo0Yxa-dH-25" value="" style="endArrow=none;html=1;rounded=0;strokeWidth=1;entryX=0;entryY=0;entryDx=0;entryDy=0;" parent="t6jlalmLybLtRW--mZOW-1" source="t6jlalmLybLtRW--mZOW-3" target="t6jlalmLybLtRW--mZOW-13" edge="1">
          <mxGeometry width="50" height="50" relative="1" as="geometry">
            <mxPoint x="159" y="304" as="sourcePoint" />
            <mxPoint x="223" y="268" as="targetPoint" />
          </mxGeometry>
        </mxCell>
        <mxCell id="qXPC0ymmBc8wo0Yxa-dH-26" value="" style="endArrow=none;html=1;rounded=0;strokeWidth=1;" parent="t6jlalmLybLtRW--mZOW-1" source="t6jlalmLybLtRW--mZOW-3" target="t6jlalmLybLtRW--mZOW-15" edge="1">
          <mxGeometry width="50" height="50" relative="1" as="geometry">
            <mxPoint x="152" y="332" as="sourcePoint" />
            <mxPoint x="226" y="468" as="targetPoint" />
          </mxGeometry>
        </mxCell>
        <mxCell id="qXPC0ymmBc8wo0Yxa-dH-27" value="" style="endArrow=none;html=1;rounded=0;strokeWidth=1;" parent="t6jlalmLybLtRW--mZOW-1" source="t6jlalmLybLtRW--mZOW-5" target="t6jlalmLybLtRW--mZOW-14" edge="1">
          <mxGeometry width="50" height="50" relative="1" as="geometry">
            <mxPoint x="152" y="332" as="sourcePoint" />
            <mxPoint x="226" y="468" as="targetPoint" />
          </mxGeometry>
        </mxCell>
        <mxCell id="qXPC0ymmBc8wo0Yxa-dH-28" value="" style="endArrow=none;html=1;rounded=0;strokeWidth=1;" parent="t6jlalmLybLtRW--mZOW-1" source="t6jlalmLybLtRW--mZOW-5" target="t6jlalmLybLtRW--mZOW-12" edge="1">
          <mxGeometry width="50" height="50" relative="1" as="geometry">
            <mxPoint x="153" y="401" as="sourcePoint" />
            <mxPoint x="229" y="523" as="targetPoint" />
          </mxGeometry>
        </mxCell>
        <mxCell id="qXPC0ymmBc8wo0Yxa-dH-29" value="" style="endArrow=none;html=1;rounded=0;strokeWidth=1;" parent="t6jlalmLybLtRW--mZOW-1" source="t6jlalmLybLtRW--mZOW-5" target="qXPC0ymmBc8wo0Yxa-dH-17" edge="1">
          <mxGeometry width="50" height="50" relative="1" as="geometry">
            <mxPoint x="161" y="391" as="sourcePoint" />
            <mxPoint x="221" y="416" as="targetPoint" />
          </mxGeometry>
        </mxCell>
        <mxCell id="qXPC0ymmBc8wo0Yxa-dH-30" value="" style="endArrow=none;html=1;rounded=0;strokeWidth=1;" parent="t6jlalmLybLtRW--mZOW-1" source="t6jlalmLybLtRW--mZOW-5" target="t6jlalmLybLtRW--mZOW-9" edge="1">
          <mxGeometry width="50" height="50" relative="1" as="geometry">
            <mxPoint x="158" y="372" as="sourcePoint" />
            <mxPoint x="224" y="326" as="targetPoint" />
          </mxGeometry>
        </mxCell>
        <mxCell id="qXPC0ymmBc8wo0Yxa-dH-31" value="" style="endArrow=none;html=1;rounded=0;strokeWidth=1;" parent="t6jlalmLybLtRW--mZOW-1" source="t6jlalmLybLtRW--mZOW-24" edge="1">
          <mxGeometry width="50" height="50" relative="1" as="geometry">
            <mxPoint x="259" y="592" as="sourcePoint" />
            <mxPoint x="530" y="430" as="targetPoint" />
          </mxGeometry>
        </mxCell>
        <mxCell id="qXPC0ymmBc8wo0Yxa-dH-32" value="" style="endArrow=none;html=1;rounded=0;strokeWidth=1;" parent="t6jlalmLybLtRW--mZOW-1" source="t6jlalmLybLtRW--mZOW-23" target="t6jlalmLybLtRW--mZOW-56" edge="1">
          <mxGeometry width="50" height="50" relative="1" as="geometry">
            <mxPoint x="418" y="583" as="sourcePoint" />
            <mxPoint x="540" y="440" as="targetPoint" />
          </mxGeometry>
        </mxCell>
        <mxCell id="qXPC0ymmBc8wo0Yxa-dH-33" value="" style="endArrow=none;html=1;rounded=0;strokeWidth=1;" parent="t6jlalmLybLtRW--mZOW-1" source="t6jlalmLybLtRW--mZOW-21" target="t6jlalmLybLtRW--mZOW-59" edge="1">
          <mxGeometry width="50" height="50" relative="1" as="geometry">
            <mxPoint x="418" y="525" as="sourcePoint" />
            <mxPoint x="537" y="389" as="targetPoint" />
          </mxGeometry>
        </mxCell>
        <mxCell id="qXPC0ymmBc8wo0Yxa-dH-34" value="" style="endArrow=none;html=1;rounded=0;strokeWidth=1;" parent="t6jlalmLybLtRW--mZOW-1" source="t6jlalmLybLtRW--mZOW-21" target="t6jlalmLybLtRW--mZOW-50" edge="1">
          <mxGeometry width="50" height="50" relative="1" as="geometry">
            <mxPoint x="425" y="425" as="sourcePoint" />
            <mxPoint x="530" y="433" as="targetPoint" />
          </mxGeometry>
        </mxCell>
        <mxCell id="qXPC0ymmBc8wo0Yxa-dH-35" value="" style="endArrow=none;html=1;rounded=0;strokeWidth=1;" parent="t6jlalmLybLtRW--mZOW-1" source="t6jlalmLybLtRW--mZOW-22" target="t6jlalmLybLtRW--mZOW-59" edge="1">
          <mxGeometry width="50" height="50" relative="1" as="geometry">
            <mxPoint x="418" y="409" as="sourcePoint" />
            <mxPoint x="537" y="269" as="targetPoint" />
          </mxGeometry>
        </mxCell>
        <mxCell id="qXPC0ymmBc8wo0Yxa-dH-36" value="" style="endArrow=none;html=1;rounded=0;strokeWidth=1;" parent="t6jlalmLybLtRW--mZOW-1" source="t6jlalmLybLtRW--mZOW-35" target="t6jlalmLybLtRW--mZOW-50" edge="1">
          <mxGeometry width="50" height="50" relative="1" as="geometry">
            <mxPoint x="424" y="476" as="sourcePoint" />
            <mxPoint x="531" y="440" as="targetPoint" />
          </mxGeometry>
        </mxCell>
        <mxCell id="qXPC0ymmBc8wo0Yxa-dH-37" value="" style="endArrow=none;html=1;rounded=0;strokeWidth=1;" parent="t6jlalmLybLtRW--mZOW-1" source="t6jlalmLybLtRW--mZOW-38" target="t6jlalmLybLtRW--mZOW-53" edge="1">
          <mxGeometry width="50" height="50" relative="1" as="geometry">
            <mxPoint x="418" y="99" as="sourcePoint" />
            <mxPoint x="537" y="239" as="targetPoint" />
          </mxGeometry>
        </mxCell>
        <mxCell id="qXPC0ymmBc8wo0Yxa-dH-38" value="" style="endArrow=none;html=1;rounded=0;strokeWidth=1;" parent="t6jlalmLybLtRW--mZOW-1" source="t6jlalmLybLtRW--mZOW-38" target="t6jlalmLybLtRW--mZOW-59" edge="1">
          <mxGeometry width="50" height="50" relative="1" as="geometry">
            <mxPoint x="424" y="265" as="sourcePoint" />
            <mxPoint x="531" y="307" as="targetPoint" />
          </mxGeometry>
        </mxCell>
        <mxCell id="qXPC0ymmBc8wo0Yxa-dH-39" value="" style="endArrow=none;html=1;rounded=0;strokeWidth=1;" parent="t6jlalmLybLtRW--mZOW-1" source="t6jlalmLybLtRW--mZOW-36" target="t6jlalmLybLtRW--mZOW-56" edge="1">
          <mxGeometry width="50" height="50" relative="1" as="geometry">
            <mxPoint x="418" y="273" as="sourcePoint" />
            <mxPoint x="537" y="419" as="targetPoint" />
          </mxGeometry>
        </mxCell>
        <mxCell id="qXPC0ymmBc8wo0Yxa-dH-40" value="" style="endArrow=none;html=1;rounded=0;strokeWidth=1;" parent="t6jlalmLybLtRW--mZOW-1" source="t6jlalmLybLtRW--mZOW-37" target="t6jlalmLybLtRW--mZOW-50" edge="1">
          <mxGeometry width="50" height="50" relative="1" as="geometry">
            <mxPoint x="416" y="159" as="sourcePoint" />
            <mxPoint x="539" y="357" as="targetPoint" />
          </mxGeometry>
        </mxCell>
        <mxCell id="qXPC0ymmBc8wo0Yxa-dH-41" value="" style="endArrow=none;html=1;rounded=0;strokeWidth=1;" parent="t6jlalmLybLtRW--mZOW-1" source="t6jlalmLybLtRW--mZOW-36" target="t6jlalmLybLtRW--mZOW-53" edge="1">
          <mxGeometry width="50" height="50" relative="1" as="geometry">
            <mxPoint x="424" y="207" as="sourcePoint" />
            <mxPoint x="531" y="247" as="targetPoint" />
          </mxGeometry>
        </mxCell>
        <mxCell id="CyipuFljGEGNBU5fCEaL-1" value="" style="curved=1;endArrow=classic;html=1;rounded=0;strokeWidth=1;strokeColor=#CC0000;" edge="1" parent="t6jlalmLybLtRW--mZOW-1" source="t6jlalmLybLtRW--mZOW-35" target="t6jlalmLybLtRW--mZOW-23">
          <mxGeometry width="50" height="50" relative="1" as="geometry">
            <mxPoint x="481" y="120" as="sourcePoint" />
            <mxPoint x="531" y="170" as="targetPoint" />
            <Array as="points">
              <mxPoint x="531" y="120" />
              <mxPoint x="410" y="300" />
              <mxPoint x="240" y="390" />
            </Array>
          </mxGeometry>
        </mxCell>
        <mxCell id="CyipuFljGEGNBU5fCEaL-2" value="" style="curved=1;endArrow=classic;html=1;rounded=0;strokeWidth=1;strokeColor=#CC0000;" edge="1" parent="t6jlalmLybLtRW--mZOW-1" source="t6jlalmLybLtRW--mZOW-38" target="t6jlalmLybLtRW--mZOW-21">
          <mxGeometry width="50" height="50" relative="1" as="geometry">
            <mxPoint x="416" y="90" as="sourcePoint" />
            <mxPoint x="383" y="526" as="targetPoint" />
            <Array as="points">
              <mxPoint x="470" y="300" />
              <mxPoint x="320" y="330" />
              <mxPoint x="250" y="400" />
            </Array>
          </mxGeometry>
        </mxCell>
        <mxCell id="CyipuFljGEGNBU5fCEaL-3" value="" style="curved=1;endArrow=classic;html=1;rounded=0;strokeWidth=1;strokeColor=#CC0000;entryX=0;entryY=0.5;entryDx=0;entryDy=0;" edge="1" parent="t6jlalmLybLtRW--mZOW-1" source="t6jlalmLybLtRW--mZOW-24" target="t6jlalmLybLtRW--mZOW-36">
          <mxGeometry width="50" height="50" relative="1" as="geometry">
            <mxPoint x="416" y="526" as="sourcePoint" />
            <mxPoint x="383" y="90" as="targetPoint" />
            <Array as="points">
              <mxPoint x="541" y="486" />
              <mxPoint x="420" y="306" />
              <mxPoint x="250" y="216" />
            </Array>
          </mxGeometry>
        </mxCell>
        <mxCell id="CyipuFljGEGNBU5fCEaL-4" value="" style="curved=1;endArrow=classic;html=1;rounded=0;strokeWidth=1;strokeColor=#CC0000;" edge="1" parent="t6jlalmLybLtRW--mZOW-1" source="t6jlalmLybLtRW--mZOW-22" target="t6jlalmLybLtRW--mZOW-37">
          <mxGeometry width="50" height="50" relative="1" as="geometry">
            <mxPoint x="414" y="422" as="sourcePoint" />
            <mxPoint x="377" y="269" as="targetPoint" />
            <Array as="points">
              <mxPoint x="480" y="381" />
              <mxPoint x="390" y="330" />
              <mxPoint x="260" y="281" />
            </Array>
          </mxGeometry>
        </mxCell>
      </root>
    </mxGraphModel>
  </diagram>
</mxfile>
